<?xml version="1.0" standalone="no"?>
<!DOCTYPE svg PUBLIC "-//W3C//DTD SVG 20010904//EN"
 "http://www.w3.org/TR/2001/REC-SVG-20010904/DTD/svg10.dtd">
<svg version="1.0" xmlns="http://www.w3.org/2000/svg"
 width="92.000000pt" height="92.000000pt" viewBox="0 0 92.000000 92.000000"
 preserveAspectRatio="xMidYMid meet">
<metadata>
Created by potrace 1.11, written by Peter Selinger 2001-2013
</metadata>
<g transform="translate(0.000000,92.000000) scale(0.100000,-0.100000)"
fill="#000000" stroke="none">
<path d="M127 614 c-4 -4 -7 -16 -7 -26 0 -14 8 -18 40 -18 l40 0 0 -62 c0
-81 -8 -93 -54 -84 -29 6 -38 3 -43 -10 -10 -27 46 -51 91 -40 50 12 57 30 54
140 l-3 101 -55 3 c-31 2 -59 0 -63 -4z"/>
<path d="M315 608 c-3 -8 -4 -63 -3 -124 l3 -109 85 0 c78 0 85 2 85 20 0 17
-8 20 -57 23 l-57 3 -3 97 c-3 92 -4 97 -26 100 -12 2 -24 -3 -27 -10z"/>
<path d="M525 608 c-3 -8 -4 -63 -3 -124 3 -101 4 -109 23 -109 17 0 21 8 25
64 5 59 6 62 21 45 9 -11 24 -34 35 -51 10 -18 24 -33 31 -33 7 0 27 26 45 58
l33 57 5 -70 c4 -62 7 -70 25 -70 19 0 20 8 23 114 1 63 -1 118 -6 123 -18 18
-43 -6 -79 -73 -21 -38 -41 -68 -45 -67 -4 2 -27 34 -51 73 -41 68 -72 91 -82
63z"/>
<path d="M101 294 c0 -11 3 -14 6 -6 3 7 2 16 -1 19 -3 4 -6 -2 -5 -13z"/>
</g>
</svg>
